<svg width="22" height="22" viewBox="0 0 22 22" fill="none" xmlns="http://www.w3.org/2000/svg">
<path d="M8.25 1.83325C8.75626 1.83325 9.16667 2.24366 9.16667 2.74992V3.66659H12.8333V2.74992C12.8333 2.24366 13.2437 1.83325 13.75 1.83325C14.2563 1.83325 14.6667 2.24366 14.6667 2.74992V3.66659H17.4167C18.4292 3.66659 19.25 4.4874 19.25 5.49992V17.4166C19.25 18.4291 18.4292 19.2499 17.4167 19.2499H4.58333C3.57081 19.2499 2.75 18.4291 2.75 17.4166V5.49992C2.75 4.4874 3.57081 3.66659 4.58333 3.66659H7.33333V2.74992C7.33333 2.24366 7.74374 1.83325 8.25 1.83325ZM7.33333 5.49992H4.58333V8.24992H17.4167V5.49992H14.6667V6.41659C14.6667 6.92285 14.2563 7.33325 13.75 7.33325C13.2437 7.33325 12.8333 6.92285 12.8333 6.41659V5.49992H9.16667V6.41659C9.16667 6.92285 8.75626 7.33325 8.25 7.33325C7.74374 7.33325 7.33333 6.92285 7.33333 6.41659V5.49992ZM17.4167 10.0833H4.58333V17.4166H17.4167V10.0833Z" fill="#1C1D22"/>
</svg>
